<?xml version="1.0" encoding="utf-8"?>
<!-- Generator: Adobe Illustrator 23.0.3, SVG Export Plug-In . SVG Version: 6.00 Build 0)  -->
<svg version="1.1" xmlns="http://www.w3.org/2000/svg" xmlns:xlink="http://www.w3.org/1999/xlink" x="0px" y="0px"
	 viewBox="0 0 25 27" enable-background="new 0 0 25 27" xml:space="preserve">
<g id="Слой_2">
	<path fill="none" stroke="#000000" stroke-width="1.5" stroke-miterlimit="10" d="M2.5,13V1h10c0,0,9,0,9,13c0,0,0-2,1-2s1.5,1,1,4
		c-0.2,1-2,1-2,1C20,24,14,26,12,26l0.5-25"/>
	<path fill="none" stroke="#000000" stroke-width="1.5" stroke-miterlimit="10" d="M12.5,5.5c-3,0-4,0-6,0c-1,0,1,4-1,4s-2,3-2,3
		s-2,0-2,2s2,2,2,2C4,24,10,26,12,26"/>
	<path fill="none" stroke="#000000" stroke-width="1.5" stroke-miterlimit="10" d="M16.5,21.7h-4c0,0-3-0.2-4-3.2"/>
	<g>
		<rect x="18" y="10" width="1" height="1"/>
	</g>
	<g>
		<rect x="15" y="10" width="1" height="1"/>
	</g>
	<g>
		<polygon points="8,14 7,14 7,16 8,16 8,14 		"/>
	</g>
	<circle fill="none" stroke="#000000" stroke-miterlimit="10" cx="17" cy="15" r="1.5"/>
	<line fill="none" stroke="#000000" stroke-width="1.5" stroke-miterlimit="10" x1="5" y1="12" x2="10" y2="12"/>
	<path fill="none" stroke="#000000" stroke-width="1.5" stroke-miterlimit="10" d="M27,11"/>
</g>
<g id="Слой_1">
	<image overflow="visible" width="25" height="27" xlink:href="icons/img.png" >
	</image>
	<path fill="none" stroke="#000000" stroke-width="2" stroke-miterlimit="10" d="M30,13"/>
	<path fill="none" stroke="#000000" stroke-width="2" stroke-miterlimit="10" d="M61,2"/>
</g>
</svg>
